<?xml version="1.0" standalone="no"?>
<!DOCTYPE svg PUBLIC "-//W3C//DTD SVG 20010904//EN"
 "http://www.w3.org/TR/2001/REC-SVG-20010904/DTD/svg10.dtd">
<svg version="1.0" xmlns="http://www.w3.org/2000/svg"
 width="80.000000pt" height="80.000000pt" viewBox="0 0 80.000000 80.000000"
 preserveAspectRatio="xMidYMid meet">
<metadata>
Created by potrace 1.11, written by Peter Selinger 2001-2013
</metadata>
<g transform="translate(0.000000,80.000000) scale(0.100000,-0.100000)"
fill="#000000" stroke="none">
<path d="M56 641 c-1 -3 -2 -17 -2 -31 1 -22 6 -25 44 -28 l42 -3 0 -200 0
-199 80 0 80 0 0 35 c0 23 -5 35 -12 34 -7 -1 -26 -1 -43 0 l-30 1 0 197 0
198 -78 1 c-43 0 -79 -2 -81 -5z"/>
<path d="M564 529 c-27 -14 -34 -14 -34 -3 0 22 -70 19 -71 -3 -1 -25 -1 -293
0 -320 1 -19 7 -23 36 -23 40 0 37 -13 36 152 0 96 0 97 30 123 35 29 61 32
83 9 13 -12 16 -41 16 -150 l0 -134 38 0 38 0 -1 148 c-2 166 -11 193 -68 211
-43 13 -63 11 -103 -10z"/>
</g>
</svg>
